External Loads File
version=1
nRows=54
nColumns=13
Range=5.000000e-03-10 seconds
endheader
time 	forceRightX 	forceRightY 	forceRightZ 	pointRightX 	pointRightY 	pointRightZ 	forceLeftX 	forceLeftY 	forceLeftZ 	pointLeftX 	pointLeftY 	pointLeftZ 		
5.005000 30.524091 202.170570 -0.000000 0.343453 0.413698 -0.123938 12.260990 -114.965365 -0.000000 0.086918 0.198494 -0.362098
5.010000 47.221988 241.750569 -0.000000 0.346637 0.406166 -0.123349 -11.914448 -151.186535 -0.000000 0.082288 0.206326 -0.361837
5.015000 62.439409 285.135729 -0.000000 0.349730 0.398077 -0.123059 -35.266280 -180.932250 -0.000000 0.078407 0.214199 -0.361974
5.020000 75.404251 330.664575 -0.000000 0.352567 0.389547 -0.122900 -56.891850 -202.866615 -0.000000 0.075189 0.222122 -0.362309
5.025000 85.876235 376.320664 -0.000000 0.355018 0.380595 -0.122984 -75.781961 -216.277324 -0.000000 0.072556 0.230464 -0.362454
5.030000 94.449021 420.117421 -0.000000 0.357313 0.370919 -0.123232 -91.093170 -221.087579 -0.000000 0.070154 0.239248 -0.362421
5.035000 100.329329 460.860396 -0.000000 0.358886 0.361076 -0.122881 -101.192960 -218.265559 -0.000000 0.068066 0.248464 -0.362474
5.040000 105.846133 497.232141 -0.000000 0.360353 0.350003 -0.122921 -106.255148 -208.664336 -0.000000 0.066152 0.258085 -0.362450
5.045000 110.086076 529.194547 -0.000000 0.361393 0.338932 -0.122838 -105.360576 -194.142721 -0.000000 0.064202 0.268333 -0.361499
5.050000 111.619283 557.300612 -0.000000 0.361866 0.327868 -0.122653 -98.279864 -176.639169 -0.000000 0.063231 0.278452 -0.361687
5.055000 112.227113 581.796621 -0.000000 0.361886 0.316668 -0.122198 -86.448449 -157.317552 -0.000000 0.062785 0.288853 -0.361919
5.060000 112.114367 603.388773 -0.000000 0.361610 0.305260 -0.122111 -70.967597 -137.475022 -0.000000 0.062961 0.299188 -0.362178
5.065000 111.301164 622.793992 -0.000000 0.360752 0.294069 -0.122195 -53.094736 -118.170633 -0.000000 0.063773 0.309538 -0.362405
5.070000 110.738523 640.524020 -0.000000 0.359345 0.283137 -0.122298 -34.291464 -100.140500 -0.000000 0.065282 0.320062 -0.362662
5.075000 110.873729 657.129632 -0.000000 0.357592 0.272228 -0.122310 -15.744151 -83.962042 -0.000000 0.067355 0.330498 -0.362897
5.080000 112.098311 673.083564 -0.000000 0.355309 0.261509 -0.122420 1.596910 -69.983183 -0.000000 0.070230 0.340897 -0.363112
5.085000 114.699513 688.805245 -0.000000 0.352536 0.251106 -0.122540 17.041265 -58.394966 -0.000000 0.073736 0.351358 -0.363368
5.090000 118.486375 704.722958 -0.000000 0.349155 0.240422 -0.122683 30.149358 -49.263738 -0.000000 0.077788 0.361025 -0.363651
5.095000 124.305095 720.989056 -0.000000 0.345093 0.230281 -0.122732 40.566814 -42.593075 -0.000000 0.082462 0.370843 -0.363844
5.100000 131.632317 737.915057 -0.000000 0.340340 0.220476 -0.122765 48.145824 -38.242964 -0.000000 0.087730 0.380190 -0.364093
5.105000 141.177068 755.555267 -0.000000 0.335459 0.211080 -0.122395 52.742092 -36.043615 -0.000000 0.093546 0.389740 -0.364234
5.110000 155.331253 773.483555 -0.000000 0.328907 0.201906 -0.122727 54.224587 -35.858648 -0.000000 0.099993 0.399150 -0.364394
5.115000 169.922700 792.343403 -0.000000 0.322298 0.193109 -0.122701 52.826328 -37.028586 -0.000000 0.107041 0.407567 -0.364481
5.120000 186.993229 811.404070 -0.000000 0.315120 0.184891 -0.122642 48.522267 -39.336680 -0.000000 0.114669 0.415717 -0.364474
5.125000 206.657818 830.142193 -0.000000 0.307314 0.177030 -0.122572 41.398274 -42.471480 -0.000000 0.122971 0.423216 -0.364416
5.130000 227.714008 848.253214 -0.000000 0.299134 0.169693 -0.122327 31.629172 -46.121769 -0.000000 0.131698 0.430148 -0.364321
5.135000 250.600996 864.935176 -0.000000 0.290515 0.162769 -0.122307 19.350236 -50.112370 -0.000000 0.140948 0.436603 -0.364245
5.140000 273.583733 879.894622 -0.000000 0.281707 0.156696 -0.122149 4.899598 -54.226544 -0.000000 0.150729 0.442270 -0.364097
5.145000 298.608092 891.636013 -0.000000 0.272308 0.151132 -0.121874 -11.508997 -58.282854 -0.000000 0.161109 0.447534 -0.365757
5.150000 321.403985 900.587494 -0.000000 0.262644 0.146085 -0.121911 -29.174669 -62.074121 -0.000000 0.171168 0.451992 -0.365037
5.155000 342.258468 905.664605 -0.000000 0.253024 0.141461 -0.121664 -47.579969 -65.360615 -0.000000 0.181304 0.456040 -0.364650
5.160000 361.856851 905.389842 -0.000000 0.243209 0.137993 -0.121381 -66.171326 -67.715827 -0.000000 0.191847 0.459655 -0.364711
5.165000 379.179808 898.797386 -0.000000 0.233336 0.134110 -0.121159 -84.230098 -68.738852 -0.000000 0.202503 0.462891 -0.364750
5.170000 392.383146 885.346122 -0.000000 0.223554 0.131619 -0.120883 -100.932721 -68.218125 -0.000000 0.213149 0.465251 -0.364769
5.175000 401.217518 864.024656 -0.000000 0.213859 0.129657 -0.120548 -115.568852 -65.972311 -0.000000 0.223685 0.467056 -0.364695
5.180000 405.652209 834.017186 -0.000000 0.204104 0.128223 -0.120745 -127.540974 -61.958217 -0.000000 0.234118 0.468330 -0.364786
5.185000 405.165566 795.201040 -0.000000 0.194585 0.127692 -0.120636 -136.397755 -56.358616 -0.000000 0.244617 0.469201 -0.364845
5.190000 399.038109 748.143587 -0.000000 0.185174 0.127720 -0.120248 -141.861564 -49.497878 -0.000000 0.254675 0.469010 -0.365019
5.195000 386.440805 694.071884 -0.000000 0.176172 0.128284 -0.120237 -143.815995 -41.776658 -0.000000 0.264293 0.468924 -0.365291
5.200000 369.123003 633.196836 -0.000000 0.167499 0.129671 -0.120244 -142.446621 -33.046616 -0.000000 0.273745 0.468072 -0.365572
5.205000 347.279577 566.639698 -0.000000 0.159085 0.131679 -0.120260 -137.947525 -23.356828 -0.000000 0.282759 0.466247 -0.365795
5.210000 320.566431 495.787370 -0.000000 0.150930 0.134104 -0.120255 -130.618262 -12.806518 -0.000000 0.291212 0.464449 -0.365879
5.215000 289.970983 421.242093 -0.000000 0.143453 0.137625 -0.120193 -120.934952 -1.105591 -0.000000 0.299320 0.461992 -0.366033
5.220000 255.732696 344.326538 -0.000000 0.136377 0.141503 -0.120169 -109.458074 11.865401 -0.000000 0.306930 0.459243 -0.366037
5.225000 218.930486 266.032344 -0.000000 0.129795 0.145810 -0.120209 -96.835817 26.482505 -0.000000 0.314032 0.455421 -0.366479
5.230000 180.065595 187.837141 -0.000000 0.123727 0.150615 -0.120240 -83.773398 42.967743 -0.000000 0.320607 0.451211 -0.366516
5.235000 139.980540 110.756785 -0.000000 0.118215 0.155874 -0.120270 -70.897341 61.675518 -0.000000 0.326724 0.446309 -0.366735
5.240000 99.105352 35.760841 -0.000000 0.113146 0.161641 -0.120189 -58.797795 82.777358 -0.000000 0.332121 0.440886 -0.366826
5.245000 57.700412 -36.455976 -0.000000 0.108654 0.167611 -0.120092 -48.086252 106.288461 -0.000000 0.336969 0.434961 -0.366716
5.250000 15.623366 -105.338605 -0.000000 0.104491 0.174026 -0.119940 -39.151386 132.128496 -0.000000 0.341457 0.428258 -0.366937
5.255000 -27.697368 -169.764469 -0.000000 0.100151 0.181128 -0.119744 -32.370476 159.978798 -0.000000 0.345524 0.421029 -0.367174
5.260000 -72.320223 -227.957954 -0.000000 0.096184 0.188675 -0.120241 -28.301142 189.394628 -0.000000 0.349398 0.413149 -0.367419
5.265000 -118.625312 -276.932876 -0.000000 0.092251 0.197037 -0.121394 -26.338153 220.025283 -0.000000 0.353022 0.403563 -0.367689
5.270000 -162.538021 -314.491260 -0.000000 0.088815 0.205054 -0.121797 -28.175948 251.106221 -0.000000 0.356241 0.394423 -0.367991
